<?xml version="1.0" encoding="utf-8"?>
<!-- Generator: Adobe Illustrator 23.0.0, SVG Export Plug-In . SVG Version: 6.00 Build 0)  -->
<svg version="1.1" id="图层_1" xmlns="http://www.w3.org/2000/svg" xmlns:xlink="http://www.w3.org/1999/xlink" x="0px" y="0px"
	 viewBox="0 0 629.4 423.2" style="enable-background:new 0 0 629.4 423.2;" xml:space="preserve">
<style type="text/css">
	.st0{fill:#34A5DE;}
	.st1{fill:#319ACF;}
	.st2{fill:#35A6DF;}
	.st3{fill:#35A4DD;}
</style>
<g>
	<g>
		<path class="st0" d="M448.7,380.6h-268c-36.7,0-66.6-29.4-66.6-65.5V128.2c0-36.1,29.9-65.6,66.6-65.6h268.5
			c18.1,0,35,7,47.6,19.8c12.2,12.4,18.8,28.6,18.5,45.8V315C515.3,351.2,485.4,380.6,448.7,380.6z M180.7,87.5
			c-23,0-41.7,18.2-41.7,40.6v186.9c0,22.4,18.7,40.6,41.7,40.6h268c23,0,41.7-18.2,41.7-40.6V128c0.2-10.5-3.9-20.5-11.4-28.1
			c-7.9-8-18.5-12.4-29.9-12.4H180.7z"/>
	</g>
</g>
<path class="st1" d="M279.8,153.6l-56.3,20c-6.1,2.1-13-0.9-15.2-7.2c-2.2-6,0.9-12.7,7.4-14.9l56.3-20c6.1-2.1,13,0.9,15.2,7.2
	C289.4,144.7,285.9,151.5,279.8,153.6L279.8,153.6z M409.3,173.6l-56.3-20c-6.1-2.1-9.5-8.9-7.4-14.9c2.2-6,9.1-9.3,15.2-7.2
	l56.3,20c6.1,2.1,9.5,8.9,7.4,14.9C422.3,172.8,415.3,175.7,409.3,173.6L409.3,173.6z"/>
<path class="st2" d="M269.9,299.3c4.3,6.4,9.1,10.2,17.3,11c12.1,0.8,18.6-8.9,30.3-5.5c18.2,5.1,31.2,7.7,47.6-5.1
	c6.5-5.1-2.6-14-9.1-8.9c-10,8.1-20.3,8.1-31.6,3.4c-3.5-1.3-5.6-3.8-9.1-4.3c-9.5-1.7-26.8,14-33.8,3.4
	C276.4,286.2,265.1,292.5,269.9,299.3L269.9,299.3z"/>
<path class="st3" d="M246.1,397.5c-6.5,0-12.1-5.1-12.1-11.9v-8.9c0-6.4,5.2-11.9,12.1-11.9c6.5,0,12.1,5.1,12.1,11.9v8.9
	C258.2,392.4,252.5,397.5,246.1,397.5L246.1,397.5z M383.7,400.4c-6.5,0-12.1-5.1-12.1-11.9v-8.9c0-6.4,5.2-11.9,12.1-11.9
	c6.5,0,12.1,5.1,12.1,11.9v8.9C395.4,395.3,390.2,400.4,383.7,400.4L383.7,400.4z M263.8,75.9l-42.4-41.6c-1.7-1.7-1.7-4.2,0-6
	l4.3-4.3c1.7-1.7,4.3-1.7,6.1,0l42.4,41.6c1.7,1.7,1.7,4.3,0,6l-4.3,4.3C268.1,77.6,265.1,77.6,263.8,75.9L263.8,75.9z M355.6,65.7
	L398,24.1c1.7-1.7,4.3-1.7,6.1,0l4.3,4.3c1.7,1.7,1.7,4.2,0,6L366,75.9c-1.7,1.7-4.3,1.7-6.1,0l-4.3-4.3
	C353.9,70,353.9,67.4,355.6,65.7L355.6,65.7z"/>
</svg>
