<?xml version="1.0" encoding="utf-8"?>
<!-- Generator: Adobe Illustrator 23.0.0, SVG Export Plug-In . SVG Version: 6.00 Build 0)  -->
<svg version="1.1" id="图层_1" xmlns="http://www.w3.org/2000/svg" xmlns:xlink="http://www.w3.org/1999/xlink" x="0px" y="0px"
	 viewBox="0 0 629.4 423.2" style="enable-background:new 0 0 629.4 423.2;" xml:space="preserve">
<style type="text/css">
	.st0{fill:#34B05E;}
	.st1{fill:none;}
</style>
<path class="st0" d="M303.5,147.4c-12.7,0-26.5-8.8-26.7-22.9c0-14,13.8-22.9,26.7-22.9c13.6,0,22.9,9.5,22.9,22.9
	C326.4,138.2,316.9,147.4,303.5,147.4L303.5,147.4z M202,147.4c-12.9,0-26.7-8.8-26.7-22.9s13.8-22.9,26.7-22.9
	c13.4,0,22.9,9.5,22.9,22.9C224.9,138.2,215.4,147.4,202,147.4L202,147.4z"/>
<path class="st0" d="M473.9,389.9c-1.8,0-3.9-0.5-5.4-1.4l-35.8-19.7c-14,3.4-27.9,6.6-41.9,6.6c-55.3,0-104.7-29.2-125.1-73.4
	c-0.7,0.2-1.4,0.2-1.8,0.2c-4.8,0.5-9.7,0.7-14.5,0.7c-16.3,0-29.5-2.7-44.6-5.9l-4.5-0.9l-47.1,23.6c-1.6,0.9-3.4,1.1-5.2,1.1
	c-2.7,0-5.4-0.9-7.5-2.7c-3.4-3-4.8-7.9-3.4-12.2l11.8-35.8c-36.7-27.9-56-63.2-56-102.2C92.8,93.5,163,33,249.1,33
	c75.7,0,143,47.1,157.3,109.7c67.1,7,119,57.1,119,115.8c0,30.8-17.5,61.9-49,87.7L485,375c1.4,4.5-0.2,9.3-3.9,12.2
	C479.1,389,476.4,389.9,473.9,389.9L473.9,389.9z M434,345.3c1.8,0,3.9,0.5,5.4,1.4l15.4,8.4l-3-9.5c-1.4-4.6,0.3-9.6,4.1-12.5
	c29.9-22.4,46.2-48.7,46.2-74.3c0-50.8-51.2-93.8-111.7-93.8c-61.6,0-112,42.1-112,93.8s50.3,93.8,112,93.8
	c13.4,0,27.2-3.4,40.8-6.8C432.2,345.5,433.1,345.3,434,345.3L434,345.3z M249.1,56.1c-73.6,0-133.7,50.3-133.7,111.9
	c0,34.2,17.9,63.9,53.2,88.6c4.1,3,5.9,8.2,4.3,12.9l-5.9,17.4l26.1-13.2c1.6-0.7,3.4-1.1,5-1.1c0.7,0,1.6,0,2.3,0.2l8.2,1.6
	c14.1,3,26.1,5.4,40.3,5.4c2.9,0,6.1,0,9.1-0.2c-1.6-7-2.3-14.3-2.3-21.1c0-61.6,56.2-112.6,126.7-116.5
	C367.9,92.8,311.7,56.1,249.1,56.1L249.1,56.1z"/>
<rect x="92.8" y="32.8" class="st1" width="432.9" height="357.7"/>
<path class="st0" d="M350.7,245.6c-10,0-19.3-9.3-19.3-19.3s9.3-19.3,19.3-19.3c14,0,22.9,10,22.9,19.3
	C373.5,238.1,361.8,245.6,350.7,245.6L350.7,245.6z"/>
<path class="st0" d="M430.4,245.6c-10,0-19.3-9.3-19.3-19.3s9.3-19.3,19.3-19.3c14.3,0,23.1,10,23.1,19.3
	C453.3,235.6,444.5,245.6,430.4,245.6L430.4,245.6z"/>
</svg>
