<svg xmlns="http://www.w3.org/2000/svg" xmlns:xlink="http://www.w3.org/1999/xlink" id="图层_1" x="0" y="0" version="1.1" viewBox="0 0 404.453 396.638" xml:space="preserve" style="enable-background:new 0 0 404.453 396.638"><g><path style="fill:#4276bb" d="M189.436,354.237c-3.018,0-5.472-2.503-5.472-5.58s2.455-5.58,5.472-5.58h176.466 c3.017,0,5.472,2.503,5.472,5.58s-2.455,5.58-5.472,5.58H189.436z M329.813,334.735c-3.017,0-5.472-2.503-5.472-5.579v-80.059 c0-3.077,2.455-5.58,5.472-5.58c3.018,0,5.473,2.503,5.473,5.58v80.059C335.285,332.232,332.83,334.735,329.813,334.735z M303.875,334.735c-3.018,0-5.473-2.503-5.473-5.579V197.69c0-3.077,2.455-5.58,5.473-5.58s5.473,2.503,5.473,5.58v131.466 C309.348,332.232,306.893,334.735,303.875,334.735z M277.939,334.735c-3.018,0-5.473-2.503-5.473-5.579v-63.24 c0-3.077,2.455-5.58,5.473-5.58c3.017,0,5.472,2.503,5.472,5.58v63.24C283.41,332.232,280.955,334.735,277.939,334.735z M252,334.735c-3.017,0-5.472-2.503-5.472-5.579v-43.479c0-3.077,2.455-5.58,5.472-5.58c3.018,0,5.472,2.503,5.472,5.58v43.479 C257.472,332.232,255.018,334.735,252,334.735z M226.063,334.735c-3.017,0-5.472-2.503-5.472-5.579v-98.269 c0-3.077,2.455-5.58,5.472-5.58c3.018,0,5.472,2.503,5.472,5.58v98.269C231.535,332.232,229.081,334.735,226.063,334.735z"/></g><rect style="fill:none" width="167.38" height="186.454" x="174.754" y="191.712"/><path style="fill:#4276bb" d="M142.613,355.751H56.905c-5.019,0-8.964-3.944-8.964-8.964V40.948c0-5.02,3.944-8.964,8.964-8.964	h257.258c5.02,0,8.962,3.944,8.962,8.964v117.777c0,5.02-3.942,8.964-8.962,8.964c-5.02,0-8.964-3.944-8.964-8.964V49.911H65.869	v287.912h76.744c5.02,0,8.964,3.944,8.964,8.964C151.577,351.807,147.633,355.751,142.613,355.751L142.613,355.751z M142.613,355.751"/><path style="fill:#4276bb" d="M250.879,125.565H119.83c-5.02,0-8.964-3.944-8.964-8.964c0-5.02,3.944-8.964,8.964-8.964h131.049	c5.02,0,8.964,3.944,8.964,8.964C259.843,121.62,255.899,125.565,250.879,125.565L250.879,125.565z"/><path style="fill:#4276bb" d="M250.879,195.122H119.83c-5.02,0-8.964-3.943-8.964-8.962c0-5.02,3.944-8.964,8.964-8.964h131.049	c5.02,0,8.964,3.944,8.964,8.964C259.843,191.179,255.899,195.122,250.879,195.122L250.879,195.122z"/><path style="fill:#4276bb" d="M152.637,264.68H119.83c-5.02,0-8.964-3.944-8.964-8.964c0-5.02,3.944-8.964,8.964-8.964h32.807	c5.02,0,8.964,3.944,8.964,8.964C161.601,260.736,157.657,264.68,152.637,264.68L152.637,264.68z"/><rect style="fill:none" width="348.742" height="342.65" x="47.994" y="31.807"/></svg>