<?xml version="1.0" encoding="utf-8"?>
<!-- Generator: Adobe Illustrator 23.0.0, SVG Export Plug-In . SVG Version: 6.00 Build 0)  -->
<svg version="1.1" id="图层_1" xmlns="http://www.w3.org/2000/svg" xmlns:xlink="http://www.w3.org/1999/xlink" x="0px" y="0px"
	 viewBox="0 0 404.5 396.6" style="enable-background:new 0 0 404.5 396.6;" xml:space="preserve">
<style type="text/css">
	.st0{fill:none;}
	.st1{fill:#4276BB;}
	.st2{opacity:0.51;fill:#4276BB;}
	.st3{clip-path:url(#SVGID_2_);fill:#4276BB;}
</style>
<rect x="166.4" y="149.3" class="st0" width="211.1" height="235.2"/>
<path class="st1" d="M142.6,355.8H56.9c-5,0-9-3.9-9-9V40.9c0-5,3.9-9,9-9h257.3c5,0,9,3.9,9,9v117.8c0,5-3.9,9-9,9c-5,0-9-3.9-9-9
	V49.9H65.9v287.9h76.7c5,0,9,3.9,9,9C151.6,351.8,147.6,355.8,142.6,355.8L142.6,355.8z"/>
<path class="st1" d="M250.9,125.6h-131c-5,0-9-3.9-9-9s3.9-9,9-9h131c5,0,9,3.9,9,9C259.8,121.6,255.9,125.6,250.9,125.6
	L250.9,125.6z"/>
<path class="st1" d="M250.9,195.1h-131c-5,0-9-3.9-9-9c0-5,3.9-9,9-9h131c5,0,9,3.9,9,9C259.8,191.2,255.9,195.1,250.9,195.1
	L250.9,195.1z"/>
<path class="st1" d="M152.6,264.7h-32.8c-5,0-9-3.9-9-9s3.9-9,9-9h32.8c5,0,9,3.9,9,9S157.7,264.7,152.6,264.7L152.6,264.7z"/>
<rect x="48" y="31.8" class="st0" width="348.7" height="342.6"/>
<g>
	<path class="st2" d="M281.2,254.2c2.3,0,4.3,1.7,4.6,4l0,0.6v56.9c0,2.4-1.9,4.5-4.3,4.6c-2.4,0.2-4.6-1.6-4.9-4l0-0.6v-56.9
		c0-1.2,0.5-2.4,1.3-3.3C278.8,254.7,280,254.2,281.2,254.2L281.2,254.2z M281.2,254.2"/>
	<g>
		<defs>
			<rect id="SVGID_1_" x="184.9" y="207" width="192.7" height="143.9"/>
		</defs>
		<clipPath id="SVGID_2_">
			<use xlink:href="#SVGID_1_"  style="overflow:visible;"/>
		</clipPath>
		<path class="st3" d="M248.8,290.9c1.5-1.8,4-2.1,6-0.9l0.5,0.4l24.9,21.1c0.2,0.2,0.5,0.3,0.7,0.3c0.2,0,0.4,0,0.5-0.1l0.2-0.1
			l25.3-21.1c1.9-1.5,4.6-1.4,6.3,0.4c1.7,1.7,1.7,4.5,0.1,6.3l-0.5,0.4l-25.3,21.1c-3.6,3-8.8,3.2-12.6,0.5l-0.7-0.6l-24.9-21.1
			c-0.9-0.8-1.5-1.9-1.6-3.1C247.7,293.1,248.1,291.9,248.8,290.9L248.8,290.9z M248.8,290.9"/>
		<path class="st3" d="M281.2,207.1c26.5,0,49.7,17.5,57.1,42.9l0.4,1.4l0.5,0.1c8.8,2.2,16.9,6.7,23.4,13.1l1.3,1.3
			c8.8,9.3,13.7,21.6,13.6,34.4c0,13.3-5.3,26.1-14.7,35.6c-9,9-21.1,14.3-33.9,14.7l-1.7,0h-21.5c-2.4,0-4.4-1.9-4.6-4.3
			c-0.2-2.4,1.6-4.5,4-4.9l0.6,0h21.5c10.9,0,21.4-4.3,29.1-12c7.7-7.7,12.1-18.1,12-29c0-10.4-4-20.5-11.1-28.1
			c-6.1-6.5-14.2-10.9-23-12.4c-1.9-0.3-3.4-1.7-3.8-3.6c-4.9-23.3-25.4-40-49.2-40c-23.8,0-44.3,16.7-49.2,40
			c-0.4,1.9-1.9,3.3-3.8,3.6c-8.8,1.5-16.9,5.8-23,12.4c-7.2,7.6-11.2,17.6-11.1,28.1c0,11,4.3,21.3,12,29
			c7.3,7.3,17.1,11.6,27.4,12l1.6,0h21.5c2.4,0,4.5,1.9,4.6,4.3c0.2,2.4-1.6,4.6-4,4.9l-0.6,0h-21.5c-13.3,0-26.1-5.3-35.6-14.7
			c-9.5-9.4-14.8-22.2-14.7-35.5c0-12.8,4.9-25.1,13.6-34.4c6.7-7.1,15.2-12.1,24.7-14.4l0.5-0.1l0.4-1.4
			c7.2-24.9,29.7-42.2,55.6-42.9L281.2,207.1z M281.2,207.1"/>
	</g>
</g>
</svg>
