<svg xmlns="http://www.w3.org/2000/svg" xmlns:xlink="http://www.w3.org/1999/xlink" id="图层_1" x="0" y="0" version="1.1" viewBox="0 0 358.073 351.583" xml:space="preserve" style="enable-background:new 0 0 358.073 351.583"><path style="fill:#4276bb" d="M67.994,330.702H12.598c-5.019,0-8.964-3.944-8.964-8.964V15.898c0-5.02,3.944-8.964,8.964-8.964	h257.258c5.02,0,8.962,3.944,8.962,8.964v143.059c0,5.02-3.942,8.964-8.962,8.964c-5.02,0-8.964-3.944-8.964-8.964V24.862H21.562	v287.912h46.432c5.02,0,8.964,3.944,8.964,8.964C76.958,326.758,73.014,330.702,67.994,330.702L67.994,330.702z M67.994,330.702"/><path style="fill:#4276bb" d="M206.572,100.516H75.523c-5.02,0-8.964-3.944-8.964-8.964c0-5.02,3.944-8.964,8.964-8.964h131.049	c5.02,0,8.964,3.944,8.964,8.964C215.536,96.571,211.592,100.516,206.572,100.516L206.572,100.516z M206.572,170.073H75.523	c-5.02,0-8.964-3.943-8.964-8.962c0-5.02,3.944-8.964,8.964-8.964h131.049c5.02,0,8.964,3.944,8.964,8.964	C215.536,166.13,211.592,170.073,206.572,170.073L206.572,170.073z M108.33,239.631H75.523c-5.02,0-8.964-3.944-8.964-8.964	s3.944-8.964,8.964-8.964h32.807c5.02,0,8.964,3.944,8.964,8.964S113.35,239.631,108.33,239.631L108.33,239.631z M195.815,331.061	c-2.33,0-4.84-0.898-6.454-2.869l-44.1-46.97c-3.407-3.585-3.228-9.321,0.357-12.729l46.97-44.459	c3.585-3.408,9.323-3.228,12.729,0.357c3.406,3.585,3.226,9.323-0.359,12.729l-40.516,38.365l38.006,40.516	c3.406,3.585,3.228,9.321-0.359,12.727C200.298,330.343,197.967,331.061,195.815,331.061L195.815,331.061z M299.076,331.061	c-2.151,0-4.481-0.898-6.095-2.51c-3.585-3.407-3.765-9.143-0.359-12.729l38.186-40.516l-40.516-38.365	c-3.585-3.406-3.764-9.142-0.357-12.729c3.406-3.585,9.142-3.765,12.727-0.358l46.97,44.459c3.585,3.407,3.765,9.143,0.359,12.729	l-44.281,46.97C303.916,330.164,301.407,331.061,299.076,331.061L299.076,331.061z M230.952,348.987c-0.716,0-1.255,0-1.971-0.179	c-4.84-1.075-7.888-5.916-6.813-10.756l29.222-129.255c1.075-4.84,5.917-7.888,10.758-6.813c4.84,1.075,7.887,5.915,6.811,10.757	l-29.222,129.255C238.841,346.12,235.076,348.987,230.952,348.987L230.952,348.987z M230.952,348.987"/><rect style="fill:none" width="348.742" height="342.65" x="3.687" y="6.758"/></svg>