<svg xmlns="http://www.w3.org/2000/svg" xmlns:xlink="http://www.w3.org/1999/xlink" id="图层_1" x="0" y="0" version="1.1" viewBox="0 0 356.748 363.068" xml:space="preserve" style="enable-background:new 0 0 356.748 363.068"><path style="fill:#4276bb" d="M115.092,345.469H29.384c-5.019,0-8.964-3.944-8.964-8.964V30.665c0-5.02,3.944-8.964,8.964-8.964	h257.258c5.02,0,8.962,3.944,8.962,8.964v117.777c0,5.02-3.942,8.964-8.962,8.964c-5.02,0-8.964-3.944-8.964-8.964V39.629H38.348	v287.912h76.744c5.02,0,8.964,3.944,8.964,8.964C124.056,341.525,120.112,345.469,115.092,345.469L115.092,345.469z M115.092,345.469"/><path style="fill:#4276bb" d="M223.357,115.283H92.309c-5.02,0-8.964-3.944-8.964-8.964c0-5.02,3.944-8.964,8.964-8.964h131.049	c5.02,0,8.964,3.944,8.964,8.964C232.321,111.338,228.377,115.283,223.357,115.283L223.357,115.283z"/><path style="fill:#4276bb" d="M223.357,184.839H92.309c-5.02,0-8.964-3.943-8.964-8.962c0-5.02,3.944-8.964,8.964-8.964h131.049	c5.02,0,8.964,3.944,8.964,8.964C232.321,180.897,228.377,184.839,223.357,184.839L223.357,184.839z"/><path style="fill:#4276bb" d="M125.116,254.397H92.309c-5.02,0-8.964-3.944-8.964-8.964c0-5.02,3.944-8.964,8.964-8.964h32.807	c5.02,0,8.964,3.944,8.964,8.964C134.08,250.454,130.135,254.397,125.116,254.397L125.116,254.397z"/><path style="fill:#7caadb" d="M271.256,218.272c-5.769-16.189-20.534-27.744-37.771-27.744c-22.242,0-40.089,19.236-40.089,42.551	c0,14.572,6.864,27.396,17.298,34.974c-23.614,9.909-40.089,34.099-40.089,62.37h11.258c0-27.979,20.045-51.295,45.581-54.5	c0.275,0,7.139-0.583,12.906,0h0.549c3.316,0.503,6.573,1.346,9.717,2.515c-2.515-4.853-4.165-10.298-4.723-16.095	c-3.78,1.798-7.979,2.796-12.407,2.796c-16.75,0-30.205-14.281-30.205-32.059s13.455-32.059,30.205-32.059	c13.585,0,25.002,9.395,28.832,22.429C265.054,221.344,268.054,219.596,271.256,218.272L271.256,218.272z M271.256,218.272"/><rect style="fill:none" width="171.294" height="157.281" x="170.628" y="190.553"/><path style="fill:#4276bb" d="M301.796,285.564c10.435-7.578,17.299-20.402,17.299-34.974c0-23.607-18.123-42.843-40.364-42.843	c-22.241,0-40.089,19.236-40.089,42.551c0,14.572,6.865,27.396,17.299,34.974c-23.614,9.909-40.089,34.099-40.089,62.37h11.258	c0-27.979,20.044-51.295,45.581-54.5c0.274,0,7.139-0.583,12.905,0h0.549c24.987,3.789,44.208,26.521,44.208,54.208h11.533	C341.611,319.371,325.136,295.182,301.796,285.564L301.796,285.564z M278.731,282.358c-16.75,0-30.204-14.281-30.204-32.059	c0-17.779,13.454-32.06,30.204-32.06c16.75,0,30.204,14.281,30.204,32.06C308.935,268.077,295.481,282.358,278.731,282.358	L278.731,282.358z M278.731,282.358"/></svg>